<?xml version="1.0"?>
<svg xmlns="http://www.w3.org/2000/svg" viewBox="0 0 512 512.00002" width="512px" height="512px"><path d="m485.765625 390.386719-154.015625-119.792969-19.972656 19.972656-33.566406-33.566406 42.464843-44.464844 10.605469 10.601563c8.496094 8.496093 19.804688 13.1875 31.816406 13.1875 12.023438 0 23.332032-4.691407 31.816406-13.1875l10.613282-10.609375.003906.003906 106.46875-106.460938-21.210938-21.210937-85.253906 85.253906-21.21875-21.21875 85.261719-85.261719-21.210937-21.210937-85.261719 85.261719-21.21875-21.21875 85.253906-85.253906-21.210937-21.210938-117.070313 117.070312c-8.496094 8.496094-13.183594 19.804688-13.183594 31.832032 0 12.011718 4.6875 23.316406 13.183594 31.8125l10.605469 10.605468-42.464844 44.46875-40.90625-40.90625c18.398438-24.394531 36.09375-69.980468-20.449219-126.503906-48.707031-48.707031-140.886719-92.417968-180.308593-53.042968-39.417969 39.433593 4.324218 131.601562 53.042968 180.308593 28.785156 28.800781 54.757813 38.335938 76.539063 38.335938 20.992187 0 37.949219-8.894531 49.917969-17.933594l40.953124 40.953125-33.566406 33.566406-19.972656-19.972656-156.015625 119.792969c-15.378906 11.953125-24.886719 29.972656-26.101563 49.410156-1.214843 19.453125 5.992188 38.511719 19.773438 52.296875 12.773438 12.785156 30.105469 19.90625 48.0625 19.90625 1.40625 0 2.8125-.046875 4.234375-.132812 19.4375-1.214844 37.453125-10.722657 49.40625-26.105469l121.796875-154.011719-19.972656-19.972656 33.566406-33.566406 33.566406 33.566406-19.972656 19.972656 119.792969 154.015625c11.953125 15.378906 29.972656 24.886719 49.410156 26.101563 1.421875.089843 2.828125.132812 4.234375.132812 17.957031 0 35.289062-7.117188 48.0625-19.90625 13.78125-13.785156 20.988281-32.84375 19.773438-52.296875-1.214844-19.4375-10.722657-37.457031-26.101563-49.410156zm0 0" fill="#FFFFFF"/></svg>
